<?xml version="1.0" encoding="utf-8"?>
<!-- Generator: Adobe Illustrator 23.0.6, SVG Export Plug-In . SVG Version: 6.00 Build 0)  -->
<svg version="1.1" id="Layer_1" xmlns="http://www.w3.org/2000/svg" xmlns:xlink="http://www.w3.org/1999/xlink" x="0px" y="0px"
	 viewBox="0 0 37.9 37.8" style="enable-background:new 0 0 37.9 37.8;" xml:space="preserve">
<style type="text/css">
	.st0{fill:#FFFFFF;}
	.st1{enable-background:new    ;}
	.st2{clip-path:url(#SVGID_2_);fill:none;stroke:#000000;stroke-width:0.25;stroke-miterlimit:10;}
	.st3{clip-path:url(#SVGID_4_);fill:none;stroke:#000000;stroke-width:0.25;stroke-miterlimit:10;}
	.st4{clip-path:url(#SVGID_6_);enable-background:new    ;}
	.st5{fill:none;stroke:#000000;stroke-width:0.25;stroke-miterlimit:10;}
	.st6{clip-path:url(#SVGID_8_);fill:none;stroke:#000000;stroke-width:0.25;stroke-miterlimit:10;}
	.st7{clip-path:url(#SVGID_10_);enable-background:new    ;}
	.st8{clip-path:url(#SVGID_12_);fill:none;stroke:#000000;stroke-width:0.25;stroke-miterlimit:10;}
	.st9{clip-path:url(#SVGID_14_);fill:none;stroke:#000000;stroke-width:0.25;stroke-miterlimit:10;}
	.st10{clip-path:url(#SVGID_16_);fill:none;stroke:#000000;stroke-width:0.25;stroke-miterlimit:10;}
	.st11{clip-path:url(#SVGID_18_);enable-background:new    ;}
	.st12{clip-path:url(#SVGID_20_);fill:none;stroke:#000000;stroke-width:0.25;stroke-miterlimit:10;}
	.st13{clip-path:url(#SVGID_22_);enable-background:new    ;}
	.st14{clip-path:url(#SVGID_24_);fill:none;stroke:#000000;stroke-width:0.25;stroke-miterlimit:10;}
	.st15{clip-path:url(#SVGID_26_);fill:none;stroke:#000000;stroke-width:0.25;stroke-miterlimit:10;}
	.st16{clip-path:url(#SVGID_28_);enable-background:new    ;}
	.st17{clip-path:url(#SVGID_30_);fill:none;stroke:#000000;stroke-width:0.25;stroke-miterlimit:10;}
	.st18{clip-path:url(#SVGID_32_);fill:none;stroke:#000000;stroke-width:0.25;stroke-miterlimit:10;}
	.st19{clip-path:url(#SVGID_34_);enable-background:new    ;}
	.st20{clip-path:url(#SVGID_36_);fill:none;stroke:#000000;stroke-width:0.25;stroke-miterlimit:10;}
	.st21{clip-path:url(#SVGID_38_);enable-background:new    ;}
	.st22{clip-path:url(#SVGID_40_);fill:none;stroke:#000000;stroke-width:0.25;stroke-miterlimit:10;}
</style>
<path class="st0" d="M34.4,6.1l-0.1,11.4c0,0-0.2,6.2-6.8,6.2h-9.3L14.1,28l6.8,0.1l9.4,9.7l0.3-10c0,0,7.3,0.5,7.3-6v-9.6
	C37.9,12.2,38.2,8.3,34.4,6.1L34.4,6.1z M26.3,22.1c3.4,0,6.1-2.7,6.1-6.1V6.1c0-3.4-2.7-6.1-6.1-6.1H6.1C2.7,0,0,2.7,0,6.1V16
	c0,3.4,2.7,6.1,6.1,6.1h0.5l0.1,9l10.1-9L26.3,22.1L26.3,22.1z"/>
<g>
	<g>
		<g class="st1">
			<g class="st1">
				<g>
					<defs>
						<path id="SVGID_1_" d="M15.1,3.7l-0.3,13.1c-0.9,0-1.8-0.3-2.5-0.6c-0.8-0.4-1.5-0.9-2-1.5c-0.6-0.6-1-1.3-1.4-2.1
							c-0.3-0.8-0.5-1.6-0.5-2.5S8.6,8.4,9,7.6c0.3-0.8,0.8-1.5,1.4-2C11,5,11.7,4.5,12.5,4.2C13.3,3.9,14.2,3.7,15.1,3.7z"/>
					</defs>
					<clipPath id="SVGID_2_">
						<use xlink:href="#SVGID_1_"  style="overflow:visible;"/>
					</clipPath>
					<path class="st2" d="M15.1,3.7l-0.3,13.1c-0.9,0-1.8-0.3-2.5-0.6c-0.8-0.4-1.5-0.9-2-1.5c-0.6-0.6-1-1.3-1.4-2.1
						c-0.3-0.8-0.5-1.6-0.5-2.5S8.6,8.4,9,7.6c0.3-0.8,0.8-1.5,1.4-2C11,5,11.7,4.5,12.5,4.2C13.3,3.9,14.2,3.7,15.1,3.7z"/>
				</g>
			</g>
			<g class="st1">
				<g>
					<defs>
						<path id="SVGID_3_" d="M16.1,3.7c0.9,0,1.8,0.3,2.5,0.6c0.8,0.4,1.5,0.9,2,1.5c0.6,0.6,1,1.3,1.4,2.1c0.3,0.8,0.5,1.6,0.5,2.5
							s-0.2,1.7-0.6,2.5c-0.3,0.8-0.8,1.5-1.4,2c-0.6,0.6-1.3,1.1-2.1,1.4c-0.8,0.3-1.7,0.5-2.6,0.5L16.1,3.7z"/>
					</defs>
					<clipPath id="SVGID_4_">
						<use xlink:href="#SVGID_3_"  style="overflow:visible;"/>
					</clipPath>
					<path class="st3" d="M16.1,3.7c0.9,0,1.8,0.3,2.5,0.6c0.8,0.4,1.5,0.9,2,1.5c0.6,0.6,1,1.3,1.4,2.1c0.3,0.8,0.5,1.6,0.5,2.5
						s-0.2,1.7-0.6,2.5c-0.3,0.8-0.8,1.5-1.4,2c-0.6,0.6-1.3,1.1-2.1,1.4c-0.8,0.3-1.7,0.5-2.6,0.5L16.1,3.7z"/>
				</g>
			</g>
			<g class="st1">
				<g>
					<defs>
						<path id="SVGID_5_" d="M16.1,3.7l-0.3,13.1l0,0h-0.1c0,0-0.1,0-0.2,0c-0.1,0-0.1,0-0.2,0c-0.1,0-0.1,0-0.2,0
							c-0.1,0-0.1,0-0.2,0h-0.1l0,0L15,3.7l0,0h0.1c0,0,0.1,0,0.2,0s0.1,0,0.2,0c0.1,0,0.1,0,0.2,0c0.1,0,0.1,0,0.2,0
							C16,3.7,16,3.7,16.1,3.7C16,3.7,16.1,3.7,16.1,3.7z"/>
					</defs>
					<clipPath id="SVGID_6_">
						<use xlink:href="#SVGID_5_"  style="overflow:visible;"/>
					</clipPath>
					<g class="st4">
						<g>
							<path class="st5" d="M16.1,3.7l-0.3,13.1l0,0h-0.1c0,0-0.1,0-0.2,0c-0.1,0-0.1,0-0.2,0l0.3-13.1c0.1,0,0.1,0,0.2,0
								C15.9,3.7,15.9,3.7,16.1,3.7C16,3.7,16,3.7,16.1,3.7C16,3.7,16.1,3.7,16.1,3.7z"/>
							<line class="st5" x1="16" y1="3.7" x2="15.8" y2="16.8"/>
							<line class="st5" x1="15.8" y1="3.7" x2="15.6" y2="16.8"/>
						</g>
						<g>
							<path class="st5" d="M15.6,3.7l-0.3,13.1c-0.1,0-0.1,0-0.2,0c-0.1,0-0.1,0-0.2,0h-0.1l0,0L15,3.7l0,0h0.1c0,0,0.1,0,0.2,0
								S15.5,3.7,15.6,3.7z"/>
							<line class="st5" x1="15.3" y1="3.7" x2="15.1" y2="16.8"/>
							<line class="st5" x1="15.1" y1="3.7" x2="14.9" y2="16.8"/>
						</g>
					</g>
				</g>
				<g>
					<defs>
						<path id="SVGID_7_" d="M16.1,3.7l-0.3,13.1l0,0h-0.1c0,0-0.1,0-0.2,0c-0.1,0-0.1,0-0.2,0c-0.1,0-0.1,0-0.2,0
							c-0.1,0-0.1,0-0.2,0h-0.1l0,0L15,3.7l0,0h0.1c0,0,0.1,0,0.2,0s0.1,0,0.2,0c0.1,0,0.1,0,0.2,0c0.1,0,0.1,0,0.2,0
							C16,3.7,16,3.7,16.1,3.7C16,3.7,16.1,3.7,16.1,3.7z"/>
					</defs>
					<clipPath id="SVGID_8_">
						<use xlink:href="#SVGID_7_"  style="overflow:visible;"/>
					</clipPath>
					<path class="st6" d="M16.1,3.7l-0.3,13.1l0,0h-0.1c0,0-0.1,0-0.2,0c-0.1,0-0.1,0-0.2,0c-0.1,0-0.1,0-0.2,0c-0.1,0-0.1,0-0.2,0
						h-0.1l0,0L15,3.7l0,0h0.1c0,0,0.1,0,0.2,0s0.1,0,0.2,0c0.1,0,0.1,0,0.2,0c0.1,0,0.1,0,0.2,0C16,3.7,16,3.7,16.1,3.7
						C16,3.7,16.1,3.7,16.1,3.7z"/>
				</g>
			</g>
			<g class="st1">
				<g>
					<defs>
						<path id="SVGID_9_" d="M15.8,16.8L15.8,16.8C15.7,16.8,15.7,16.8,15.8,16.8c-0.1,0-0.2,0-0.3,0c-0.1,0-0.1,0-0.2,0
							c-0.1,0-0.1,0-0.2,0c-0.1,0-0.1,0-0.2,0h-0.1l0,0c-0.9,0-1.8-0.3-2.5-0.6c-0.8-0.4-1.5-0.9-2-1.5c-0.6-0.6-1-1.3-1.4-2.1
							c-0.3-0.8-0.5-1.6-0.5-2.5S8.6,8.4,9,7.6c0.3-0.8,0.8-1.5,1.4-2C11,5,11.7,4.5,12.5,4.2s1.7-0.5,2.6-0.5l0,0h0.1
							c0,0,0.1,0,0.2,0s0.1,0,0.2,0c0.1,0,0.1,0,0.2,0c0.1,0,0.1,0,0.2,0h0.1l0,0c0.6,0,1.2,0.1,1.8,0.3c0.6,0.2,1.1,0.4,1.6,0.7
							C20,5,20.4,5.4,20.8,5.8c0.4,0.4,0.7,0.9,1,1.4c0.1,0.2,0.2,0.5,0.3,0.7c0.1,0.2,0.2,0.5,0.2,0.8c0.1,0.3,0.1,0.5,0.1,0.8
							c0,0.3,0,0.6,0,0.8c0,0.3,0,0.5-0.1,0.8c0,0.3-0.1,0.5-0.2,0.8c-0.1,0.3-0.2,0.5-0.3,0.7c-0.1,0.2-0.2,0.5-0.3,0.7
							c-0.3,0.5-0.6,1-1,1.4s-0.9,0.8-1.4,1.1s-1,0.5-1.6,0.7C17.1,16.7,16.5,16.8,15.8,16.8z"/>
					</defs>
					<clipPath id="SVGID_10_">
						<use xlink:href="#SVGID_9_"  style="overflow:visible;"/>
					</clipPath>
					<g class="st7">
						<g>
							<path class="st5" d="M15.8,16.8c0.9,0,1.8-0.2,2.6-0.5s1.5-0.8,2.1-1.4s1.1-1.3,1.4-2c0.3-0.8,0.5-1.6,0.6-2.5
								c0,0-0.2,0-0.5,0c-0.4,0-0.9,0-1.5,0s-1.4,0-2.2,0s-1.8,0-2.7,0c0,0.9,0,1.7,0,2.5c0,0.8,0,1.5,0,2c0,0.6,0,1.1,0,1.4
								s0,0.6,0,0.6c0.1,0,0.1,0,0.2,0c0.1,0,0.1,0,0.2,0C15.7,16.8,15.8,16.8,15.8,16.8L15.8,16.8z"/>
							<path class="st5" d="M19.1,15.9c0,0-0.1,0-0.3,0s-0.5,0-0.8,0s-0.7,0-1.2,0s-0.9,0-1.5,0"/>
							<path class="st5" d="M21.5,13.6c0,0-0.2,0-0.5,0s-0.8,0-1.3,0c-0.6,0-1.2,0-1.9,0s-1.5,0-2.4,0"/>
							<path class="st5" d="M15.8,16.8c0.8,0,1.5-0.2,2.2-0.5s1.3-0.8,1.8-1.4s0.9-1.3,1.2-2c0.3-0.8,0.5-1.6,0.5-2.5"/>
							<path class="st5" d="M15.6,16.8c0.5,0,0.9-0.2,1.3-0.6c0.4-0.3,0.8-0.8,1.1-1.4s0.6-1.3,0.7-2c0.2-0.8,0.3-1.6,0.3-2.5"/>
						</g>
						<g>
							<path class="st5" d="M15.3,16.8c0,0,0-0.2,0-0.6c0-0.3,0-0.8,0-1.4s0-1.3,0-2c0-0.8,0-1.6,0-2.5c-1,0-1.9,0-2.7,0
								s-1.6,0-2.2,0c-0.6,0-1.2,0-1.5,0c-0.4,0-0.6,0-0.6,0c0,0.9,0.2,1.7,0.5,2.5c0.3,0.8,0.8,1.5,1.4,2.1c0.6,0.6,1.3,1.1,2,1.5
								c0.8,0.4,1.6,0.6,2.5,0.6l0,0h0.1c0,0,0.1,0,0.2,0C15.2,16.8,15.3,16.8,15.3,16.8z"/>
							<path class="st5" d="M15.4,15.8c-0.5,0-1,0-1.5,0s-0.9,0-1.2,0s-0.6,0-0.8,0s-0.3,0-0.3,0"/>
							<path class="st5" d="M15.4,13.5c-0.8,0-1.6,0-2.4,0c-0.7,0-1.4,0-2,0s-1,0-1.3,0s-0.5,0-0.5,0"/>
							<path class="st5" d="M15.1,16.8c-0.5,0-0.9-0.3-1.3-0.6c-0.4-0.4-0.7-0.8-1-1.4s-0.5-1.3-0.7-2.1c-0.1-0.8-0.2-1.6-0.2-2.5"
								/>
							<path class="st5" d="M14.9,16.8c-0.8,0-1.5-0.3-2.2-0.6c-0.7-0.4-1.3-0.9-1.8-1.4c-0.5-0.6-0.9-1.3-1.2-2.1
								c-0.3-0.8-0.4-1.6-0.4-2.5"/>
						</g>
						<g>
							<path class="st5" d="M22.5,10.4c0-0.9-0.2-1.7-0.5-2.5c-0.3-0.8-0.8-1.5-1.4-2.1s-1.3-1.1-2-1.5c-0.8-0.4-1.6-0.6-2.5-0.6
								l0,0H16c0,0-0.1,0-0.2,0c-0.1,0-0.1,0-0.2,0c0,0,0,0.2,0,0.6c0,0.3,0,0.8,0,1.4s0,1.3,0,2c0,0.8,0,1.6,0,2.5c1,0,1.9,0,2.7,0
								s1.6,0,2.2,0c0.6,0,1.1,0,1.5,0C22.3,10.4,22.5,10.4,22.5,10.4z"/>
							<path class="st5" d="M21.6,7.1c0,0-0.2,0-0.5,0s-0.8,0-1.3,0c-0.6,0-1.2,0-1.9,0s-1.5,0-2.4,0"/>
							<path class="st5" d="M19.3,4.8c0,0-0.1,0-0.3,0s-0.5,0-0.8,0s-0.7,0-1.2,0s-0.9,0-1.5,0"/>
							<path class="st5" d="M21.5,10.4c0-0.9-0.1-1.7-0.4-2.5c-0.3-0.8-0.7-1.5-1.2-2.1s-1.1-1.1-1.8-1.4c-0.7-0.4-1.4-0.6-2.2-0.6"
								/>
							<path class="st5" d="M19,10.3c0-0.9-0.1-1.7-0.2-2.5c-0.2-0.7-0.4-1.4-0.7-2s-0.6-1.1-1-1.4c-0.4-0.4-0.8-0.6-1.3-0.6"/>
						</g>
						<g>
							<path class="st5" d="M15.5,10.3c0-0.9,0-1.7,0-2.5s0-1.5,0-2c0-0.6,0-1.1,0-1.4s0-0.6,0-0.6c-0.1,0-0.1,0-0.2,0s-0.1,0-0.2,0
								H15l0,0c-0.9,0-1.8,0.2-2.6,0.5s-1.5,0.8-2.1,1.4S9.2,7,8.9,7.7c-0.3,0.8-0.5,1.6-0.6,2.5c0,0,0.2,0,0.6,0c0.4,0,0.9,0,1.5,0
								s1.4,0,2.2,0C13.6,10.2,14.5,10.2,15.5,10.3z"/>
							<path class="st5" d="M15.5,7c-0.8,0-1.6,0-2.4,0c-0.7,0-1.4,0-2,0s-1,0-1.3,0S9.3,7,9.3,7"/>
							<path class="st5" d="M15.6,4.7c-0.5,0-1,0-1.5,0s-0.9,0-1.2,0s-0.6,0-0.8,0s-0.3,0-0.3,0"/>
							<path class="st5" d="M12,10.2c0-0.9,0.1-1.7,0.3-2.5s0.4-1.5,0.7-2c0.3-0.6,0.7-1.1,1.1-1.4c0.4-0.3,0.8-0.5,1.3-0.6"/>
							<path class="st5" d="M9.4,10.2c0-0.9,0.2-1.7,0.5-2.5s0.7-1.4,1.2-2s1.1-1.1,1.8-1.4s1.4-0.5,2.2-0.5"/>
						</g>
					</g>
				</g>
				<g>
					<defs>
						<path id="SVGID_11_" d="M15.8,16.8L15.8,16.8C15.7,16.8,15.7,16.8,15.8,16.8c-0.1,0-0.2,0-0.3,0c-0.1,0-0.1,0-0.2,0
							c-0.1,0-0.1,0-0.2,0c-0.1,0-0.1,0-0.2,0h-0.1l0,0c-0.9,0-1.8-0.3-2.5-0.6c-0.8-0.4-1.5-0.9-2-1.5c-0.6-0.6-1-1.3-1.4-2.1
							c-0.3-0.8-0.5-1.6-0.5-2.5S8.6,8.4,9,7.6c0.3-0.8,0.8-1.5,1.4-2C11,5,11.7,4.5,12.5,4.2s1.7-0.5,2.6-0.5l0,0h0.1
							c0,0,0.1,0,0.2,0s0.1,0,0.2,0c0.1,0,0.1,0,0.2,0c0.1,0,0.1,0,0.2,0h0.1l0,0c0.6,0,1.2,0.1,1.8,0.3c0.6,0.2,1.1,0.4,1.6,0.7
							C20,5,20.4,5.4,20.8,5.8c0.4,0.4,0.7,0.9,1,1.4c0.1,0.2,0.2,0.5,0.3,0.7c0.1,0.2,0.2,0.5,0.2,0.8c0.1,0.3,0.1,0.5,0.1,0.8
							c0,0.3,0,0.6,0,0.8c0,0.3,0,0.5-0.1,0.8c0,0.3-0.1,0.5-0.2,0.8c-0.1,0.3-0.2,0.5-0.3,0.7c-0.1,0.2-0.2,0.5-0.3,0.7
							c-0.3,0.5-0.6,1-1,1.4s-0.9,0.8-1.4,1.1s-1,0.5-1.6,0.7C17.1,16.7,16.5,16.8,15.8,16.8z"/>
					</defs>
					<clipPath id="SVGID_12_">
						<use xlink:href="#SVGID_11_"  style="overflow:visible;"/>
					</clipPath>
					<path class="st8" d="M15.8,16.8L15.8,16.8C15.7,16.8,15.7,16.8,15.8,16.8c-0.1,0-0.2,0-0.3,0c-0.1,0-0.1,0-0.2,0
						c-0.1,0-0.1,0-0.2,0c-0.1,0-0.1,0-0.2,0h-0.1l0,0c-0.9,0-1.8-0.3-2.5-0.6c-0.8-0.4-1.5-0.9-2-1.5c-0.6-0.6-1-1.3-1.4-2.1
						c-0.3-0.8-0.5-1.6-0.5-2.5S8.6,8.4,9,7.6c0.3-0.8,0.8-1.5,1.4-2C11,5,11.7,4.5,12.5,4.2s1.7-0.5,2.6-0.5l0,0h0.1
						c0,0,0.1,0,0.2,0s0.1,0,0.2,0c0.1,0,0.1,0,0.2,0c0.1,0,0.1,0,0.2,0h0.1l0,0c0.6,0,1.2,0.1,1.8,0.3c0.6,0.2,1.1,0.4,1.6,0.7
						C20,5,20.4,5.4,20.8,5.8c0.4,0.4,0.7,0.9,1,1.4c0.1,0.2,0.2,0.5,0.3,0.7c0.1,0.2,0.2,0.5,0.2,0.8c0.1,0.3,0.1,0.5,0.1,0.8
						c0,0.3,0,0.6,0,0.8c0,0.3,0,0.5-0.1,0.8c0,0.3-0.1,0.5-0.2,0.8c-0.1,0.3-0.2,0.5-0.3,0.7c-0.1,0.2-0.2,0.5-0.3,0.7
						c-0.3,0.5-0.6,1-1,1.4s-0.9,0.8-1.4,1.1s-1,0.5-1.6,0.7C17.1,16.7,16.5,16.8,15.8,16.8z"/>
				</g>
			</g>
			<g class="st1">
				<g>
					<defs>
						<path id="SVGID_13_" d="M15.3,3.2h0.3l-0.2,14.1h-0.3c-1,0-2-0.2-2.8-0.6c-0.9-0.4-1.6-0.9-2.3-1.6c-0.6-0.6-1.2-1.4-1.5-2.3
							C8.1,12,8,11,8,10s0.2-1.9,0.6-2.7C9,6.5,9.5,5.7,10.2,5.1c0.7-0.6,1.5-1.1,2.3-1.5C13.4,3.4,14.3,3.2,15.3,3.2z M14.8,16.8
							L15,3.7c-0.9,0-1.8,0.2-2.6,0.5S10.9,5,10.3,5.6s-1.1,1.3-1.4,2c-0.3,0.8-0.5,1.6-0.6,2.5c0,0.9,0.2,1.7,0.5,2.5
							c0.3,0.8,0.8,1.5,1.4,2.1c0.6,0.6,1.3,1.1,2,1.5C13.1,16.5,13.9,16.8,14.8,16.8"/>
					</defs>
					<clipPath id="SVGID_14_">
						<use xlink:href="#SVGID_13_"  style="overflow:visible;"/>
					</clipPath>
					<path class="st9" d="M15.3,3.2h0.3l-0.2,14.1h-0.3c-1,0-2-0.2-2.8-0.6c-0.9-0.4-1.6-0.9-2.3-1.6c-0.6-0.6-1.2-1.4-1.5-2.3
						C8.1,12,8,11,8,10s0.2-1.9,0.6-2.7C9,6.5,9.5,5.7,10.2,5.1c0.7-0.6,1.5-1.1,2.3-1.5C13.4,3.4,14.3,3.2,15.3,3.2z M14.8,16.8
						L15,3.7c-0.9,0-1.8,0.2-2.6,0.5S10.9,5,10.3,5.6s-1.1,1.3-1.4,2c-0.3,0.8-0.5,1.6-0.6,2.5c0,0.9,0.2,1.7,0.5,2.5
						c0.3,0.8,0.8,1.5,1.4,2.1c0.6,0.6,1.3,1.1,2,1.5C13.1,16.5,13.9,16.8,14.8,16.8"/>
				</g>
			</g>
			<g class="st1">
				<g>
					<defs>
						<path id="SVGID_15_" d="M15.8,3.2c1,0,2,0.2,2.8,0.6c0.9,0.4,1.6,0.9,2.3,1.6c0.7,0.6,1.2,1.4,1.5,2.2
							c0.4,0.8,0.5,1.8,0.5,2.8s-0.2,1.9-0.6,2.7c-0.4,0.8-0.9,1.6-1.6,2.2c-0.7,0.6-1.5,1.1-2.3,1.5c-0.9,0.3-1.8,0.5-2.8,0.5h-0.3
							l0.3-14.1H15.8z M15.8,16.8c0.9,0,1.8-0.2,2.6-0.5s1.5-0.8,2.1-1.4s1.1-1.3,1.4-2c0.3-0.8,0.5-1.6,0.6-2.5
							c0-0.9-0.2-1.7-0.5-2.5s-0.8-1.5-1.4-2.1s-1.3-1.1-2-1.5c-0.8-0.4-1.6-0.6-2.5-0.6L15.8,16.8"/>
					</defs>
					<clipPath id="SVGID_16_">
						<use xlink:href="#SVGID_15_"  style="overflow:visible;"/>
					</clipPath>
					<path class="st10" d="M15.8,3.2c1,0,2,0.2,2.8,0.6c0.9,0.4,1.6,0.9,2.3,1.6c0.7,0.6,1.2,1.4,1.5,2.2c0.4,0.8,0.5,1.8,0.5,2.8
						s-0.2,1.9-0.6,2.7c-0.4,0.8-0.9,1.6-1.6,2.2c-0.7,0.6-1.5,1.1-2.3,1.5c-0.9,0.3-1.8,0.5-2.8,0.5h-0.3l0.3-14.1H15.8z
						 M15.8,16.8c0.9,0,1.8-0.2,2.6-0.5s1.5-0.8,2.1-1.4s1.1-1.3,1.4-2c0.3-0.8,0.5-1.6,0.6-2.5c0-0.9-0.2-1.7-0.5-2.5
						s-0.8-1.5-1.4-2.1s-1.3-1.1-2-1.5c-0.8-0.4-1.6-0.6-2.5-0.6L15.8,16.8"/>
				</g>
			</g>
			<g class="st1">
				<g>
					<defs>
						<path id="SVGID_17_" d="M15.8,3.2c0.8,0,1.6,0.2,2.3,0.4c0.7,0.2,1.4,0.6,2,1c0.5,0.5,1.1,1,1.5,1.6s0.8,1.2,1,1.9
							c0.1,0.2,0.1,0.4,0.2,0.6s0.1,0.4,0.1,0.6c0,0.2,0.1,0.4,0.1,0.6c0,0.2,0,0.4,0,0.6c0,0-0.2,0-0.6,0c-0.4,0-0.9,0-1.6,0
							c-0.7,0-1.5,0-2.4,0s-1.9,0-2.9-0.1c-1,0-2,0-2.9-0.1c-0.9,0-1.7,0-2.4,0s-1.2,0-1.6,0c-0.4,0-0.6,0-0.6,0
							c0-1,0.2-1.9,0.6-2.7C9,6.8,9.5,6,10.2,5.4c0.7-0.6,1.5-1.1,2.3-1.5c0.9-0.3,1.8-0.5,2.8-0.5l0,0c0,0,0,0,0.1,0h0.1h0.1h0.1
							C15.7,3.4,15.7,3.2,15.8,3.2L15.8,3.2L15.8,3.2z"/>
					</defs>
					<clipPath id="SVGID_18_">
						<use xlink:href="#SVGID_17_"  style="overflow:visible;"/>
					</clipPath>
					<g class="st11">
						<g>
							<path class="st5" d="M15.8,3.2c1,0,2,0.2,2.8,0.6c0.9,0.4,1.6,0.9,2.3,1.6c0.7,0.6,1.2,1.4,1.5,2.2c0.4,0.8,0.5,1.8,0.5,2.8
								c0,0-0.2,0-0.6,0c-0.4,0-0.9,0-1.6,0c-0.7,0-1.5,0-2.4,0s-1.9,0-2.9-0.1c0-1,0-1.9,0-2.7s0-1.6,0-2.2s0-1.2,0-1.5
								c0-0.4,0-0.6,0-0.6h0.1C15.5,3.3,15.7,3.2,15.8,3.2L15.8,3.2L15.8,3.2z"/>
							<path class="st5" d="M19.5,4.2c0,0-0.1,0-0.3,0s-0.5,0-0.8,0c-0.4,0-0.8,0-1.2,0c-0.5,0-1,0-1.5,0"/>
							<path class="st5" d="M22,6.8c0,0-0.2,0-0.5,0s-0.8,0-1.4,0c-0.6,0-1.3,0-2.1,0s-1.6,0-2.5,0"/>
							<path class="st5" d="M15.8,3.2c0.9,0,1.7,0.2,2.4,0.6s1.4,0.9,2,1.5s1,1.4,1.3,2.3c0.3,0.8,0.5,1.8,0.4,2.7"/>
							<path class="st5" d="M15.7,3.2c0.5,0,1,0.2,1.4,0.6s0.8,0.9,1.1,1.5C18.6,6,18.8,6.8,19,7.6s0.3,1.8,0.2,2.7"/>
						</g>
						<g>
							<path class="st5" d="M15.6,3.2c0,0,0,0.2,0,0.6s0,0.9,0,1.5s0,1.4,0,2.2s0,1.8,0,2.7c-1,0-2,0-2.9-0.1c-0.9,0-1.7,0-2.4,0
								s-1.2,0-1.6,0c-0.4,0-0.6,0-0.6,0c0-1,0.2-1.9,0.6-2.7c0.4-0.8,0.9-1.6,1.6-2.2c0.7-0.6,1.5-1.1,2.3-1.5
								c0.9-0.3,1.8-0.5,2.8-0.5l0,0c0,0,0,0,0.1,0C15.4,3.2,15.4,3.2,15.6,3.2C15.5,3.2,15.5,3.2,15.6,3.2z"/>
							<path class="st5" d="M15.6,4.2c-0.5,0-1.1,0-1.5,0c-0.5,0-0.9,0-1.2,0c-0.4,0-0.6,0-0.8,0s-0.3,0-0.3,0"/>
							<path class="st5" d="M15.5,6.7c-0.9,0-1.8,0-2.5,0c-0.8,0-1.5,0-2.1,0s-1.1,0-1.4,0c-0.3,0-0.5,0-0.5,0"/>
							<path class="st5" d="M15.4,3.2c-0.5,0-1,0.2-1.4,0.5c-0.4,0.4-0.8,0.9-1.2,1.5c-0.3,0.6-0.6,1.4-0.8,2.2s-0.3,1.8-0.3,2.7"/>
							<path class="st5" d="M15.4,3.2c-0.9,0-1.7,0.2-2.4,0.5c-0.8,0.3-1.4,0.9-2,1.5s-1,1.4-1.4,2.2c-0.3,0.8-0.5,1.8-0.5,2.7"/>
						</g>
						<g>
							<path class="st5" d="M23,10.4c0,1-0.2,1.9-0.6,2.7c-0.4,0.8-0.9,1.6-1.6,2.2c-0.7,0.6-1.5,1.1-2.3,1.5
								c-0.9,0.3-1.8,0.5-2.8,0.5l0,0c0,0,0,0-0.1,0c0,0,0,0-0.1,0h-0.1c0,0,0-0.2,0-0.6s0-0.9,0-1.5s0-1.4,0-2.2
								c0-0.8,0-1.8,0.1-2.7c1,0,2,0,2.9,0.1c0.9,0,1.7,0,2.4,0s1.2,0,1.6,0C22.8,10.4,23,10.4,23,10.4z"/>
							<path class="st5" d="M21.9,10.4c0,1-0.2,1.9-0.5,2.7c-0.3,0.8-0.8,1.6-1.4,2.2c-0.6,0.6-1.3,1.1-2,1.5
								c-0.8,0.3-1.6,0.5-2.5,0.5"/>
							<path class="st5" d="M19.3,10.3c0,1-0.1,1.9-0.3,2.7c-0.2,0.8-0.5,1.6-0.8,2.2c-0.3,0.6-0.8,1.1-1.2,1.5s-0.9,0.5-1.4,0.5"/>
						</g>
						<g>
							<path class="st5" d="M15.5,10.3c0,1,0,1.9-0.1,2.7c0,0.8,0,1.6,0,2.2c0,0.6,0,1.2,0,1.5c0,0.4,0,0.6,0,0.6h-0.1h-0.1
								c0,0,0,0-0.1,0l0,0c-1,0-2-0.2-2.8-0.6c-0.9-0.4-1.6-0.9-2.3-1.6c-0.6-0.6-1.2-1.4-1.5-2.3C8.1,12,8,11,8,10c0,0,0.2,0,0.6,0
								c0.4,0,0.9,0,1.6,0c0.7,0,1.5,0,2.4,0C13.5,10.2,14.5,10.2,15.5,10.3z"/>
							<path class="st5" d="M11.7,10.2c0,1,0.1,1.9,0.2,2.7c0.2,0.8,0.4,1.6,0.7,2.2c0.3,0.6,0.7,1.2,1.1,1.5
								c0.4,0.4,0.9,0.6,1.4,0.6"/>
							<path class="st5" d="M9,10.2c0,1,0.1,1.9,0.4,2.7c0.3,0.8,0.7,1.6,1.3,2.3c0.6,0.6,1.2,1.2,2,1.5c0.7,0.4,1.6,0.6,2.4,0.6"/>
						</g>
					</g>
				</g>
				<g>
					<defs>
						<path id="SVGID_19_" d="M15.8,3.2c0.8,0,1.6,0.2,2.3,0.4c0.7,0.2,1.4,0.6,2,1c0.5,0.5,1.1,1,1.5,1.6s0.8,1.2,1,1.9
							c0.1,0.2,0.1,0.4,0.2,0.6s0.1,0.4,0.1,0.6c0,0.2,0.1,0.4,0.1,0.6c0,0.2,0,0.4,0,0.6c0,0-0.2,0-0.6,0c-0.4,0-0.9,0-1.6,0
							c-0.7,0-1.5,0-2.4,0s-1.9,0-2.9-0.1c-1,0-2,0-2.9-0.1c-0.9,0-1.7,0-2.4,0s-1.2,0-1.6,0c-0.4,0-0.6,0-0.6,0
							c0-1,0.2-1.9,0.6-2.7C9,6.8,9.5,6,10.2,5.4c0.7-0.6,1.5-1.1,2.3-1.5c0.9-0.3,1.8-0.5,2.8-0.5l0,0c0,0,0,0,0.1,0h0.1h0.1h0.1
							C15.7,3.4,15.7,3.2,15.8,3.2L15.8,3.2L15.8,3.2z"/>
					</defs>
					<clipPath id="SVGID_20_">
						<use xlink:href="#SVGID_19_"  style="overflow:visible;"/>
					</clipPath>
					<path class="st12" d="M15.8,3.2c0.8,0,1.6,0.2,2.3,0.4c0.7,0.2,1.4,0.6,2,1c0.5,0.5,1.1,1,1.5,1.6s0.8,1.2,1,1.9
						c0.1,0.2,0.1,0.4,0.2,0.6s0.1,0.4,0.1,0.6c0,0.2,0.1,0.4,0.1,0.6c0,0.2,0,0.4,0,0.6c0,0-0.2,0-0.6,0c-0.4,0-0.9,0-1.6,0
						c-0.7,0-1.5,0-2.4,0s-1.9,0-2.9-0.1c-1,0-2,0-2.9-0.1c-0.9,0-1.7,0-2.4,0s-1.2,0-1.6,0c-0.4,0-0.6,0-0.6,0c0-1,0.2-1.9,0.6-2.7
						C9,6.8,9.5,6,10.2,5.4c0.7-0.6,1.5-1.1,2.3-1.5c0.9-0.3,1.8-0.5,2.8-0.5l0,0c0,0,0,0,0.1,0h0.1h0.1h0.1
						C15.7,3.4,15.7,3.2,15.8,3.2L15.8,3.2L15.8,3.2z"/>
				</g>
			</g>
			<g class="st1">
				<g>
					<defs>
						<path id="SVGID_21_" d="M23,10.4c0,0.2,0,0.4,0,0.6s0,0.4-0.1,0.6c0,0.2-0.1,0.4-0.1,0.5c0,0.2-0.1,0.4-0.2,0.5
							c-0.3,0.7-0.6,1.3-1.1,1.9c-0.5,0.6-1,1.1-1.6,1.5s-1.3,0.7-2,1c-0.7,0.2-1.5,0.3-2.3,0.3l0,0c0,0,0,0-0.1,0c0,0,0,0-0.1,0
							h-0.1h-0.1h-0.1c0,0,0,0-0.1,0l0,0c-1,0-2-0.2-2.8-0.6c-0.9-0.4-1.6-0.9-2.3-1.6c-0.6-0.6-1.2-1.4-1.5-2.3C8,12,7.9,11,7.9,10
							c0,0,0.2,0,0.6,0c0.4,0,0.9,0,1.6,0c0.7,0,1.5,0,2.4,0s1.9,0,2.9,0.1c1,0,2,0,2.9,0.1c0.9,0,1.7,0,2.4,0s1.2,0,1.6,0
							C22.8,10.4,23,10.4,23,10.4z"/>
					</defs>
					<clipPath id="SVGID_22_">
						<use xlink:href="#SVGID_21_"  style="overflow:visible;"/>
					</clipPath>
					<g class="st13">
						<g>
							<path class="st5" d="M15.8,3.2c1,0,2,0.2,2.8,0.6c0.9,0.4,1.6,0.9,2.3,1.6c0.7,0.6,1.2,1.4,1.5,2.2c0.4,0.8,0.5,1.8,0.5,2.8
								c0,0-0.2,0-0.6,0c-0.4,0-0.9,0-1.6,0c-0.7,0-1.5,0-2.4,0s-1.9,0-2.9-0.1c0-1,0-1.9,0-2.7s0-1.6,0-2.2s0-1.2,0-1.5
								c0-0.4,0-0.6,0-0.6h0.1C15.5,3.3,15.7,3.2,15.8,3.2L15.8,3.2L15.8,3.2z"/>
							<path class="st5" d="M15.8,3.2c0.9,0,1.7,0.2,2.4,0.6s1.4,0.9,2,1.5s1,1.4,1.3,2.3c0.3,0.8,0.5,1.8,0.4,2.7"/>
							<path class="st5" d="M15.7,3.2c0.5,0,1,0.2,1.4,0.6s0.8,0.9,1.1,1.5C18.6,6,18.8,6.8,19,7.6s0.3,1.8,0.2,2.7"/>
						</g>
						<g>
							<path class="st5" d="M15.6,3.2c0,0,0,0.2,0,0.6s0,0.9,0,1.5s0,1.4,0,2.2s0,1.8,0,2.7c-1,0-2,0-2.9-0.1c-0.9,0-1.7,0-2.4,0
								s-1.2,0-1.6,0c-0.4,0-0.6,0-0.6,0c0-1,0.2-1.9,0.6-2.7c0.4-0.8,0.9-1.6,1.6-2.2c0.7-0.6,1.5-1.1,2.3-1.5
								c0.9-0.3,1.8-0.5,2.8-0.5l0,0c0,0,0,0,0.1,0C15.4,3.2,15.4,3.2,15.6,3.2C15.5,3.2,15.5,3.2,15.6,3.2z"/>
							<path class="st5" d="M15.4,3.2c-0.5,0-1,0.2-1.4,0.5c-0.4,0.4-0.8,0.9-1.2,1.5c-0.3,0.6-0.6,1.4-0.8,2.2s-0.3,1.8-0.3,2.7"/>
							<path class="st5" d="M15.4,3.2c-0.9,0-1.7,0.2-2.4,0.5c-0.8,0.3-1.4,0.9-2,1.5s-1,1.4-1.4,2.2c-0.3,0.8-0.5,1.8-0.5,2.7"/>
						</g>
						<g>
							<path class="st5" d="M23,10.4c0,1-0.2,1.9-0.6,2.7c-0.4,0.8-0.9,1.6-1.6,2.2c-0.7,0.6-1.5,1.1-2.3,1.5
								c-0.9,0.3-1.8,0.5-2.8,0.5l0,0c0,0,0,0-0.1,0c0,0,0,0-0.1,0h-0.1c0,0,0-0.2,0-0.6s0-0.9,0-1.5s0-1.4,0-2.2
								c0-0.8,0-1.8,0.1-2.7c1,0,2,0,2.9,0.1c0.9,0,1.7,0,2.4,0s1.2,0,1.6,0C22.8,10.4,23,10.4,23,10.4z"/>
							<path class="st5" d="M21.9,13.9c0,0-0.2,0-0.5,0s-0.8,0-1.4,0c-0.6,0-1.3,0-2.1,0s-1.6,0-2.5,0"/>
							<path class="st5" d="M19.3,16.4c0,0-0.1,0-0.3,0s-0.5,0-0.8,0c-0.4,0-0.8,0-1.2,0c-0.5,0-1,0-1.5,0"/>
							<path class="st5" d="M21.9,10.4c0,1-0.2,1.9-0.5,2.7c-0.3,0.8-0.8,1.6-1.4,2.2c-0.6,0.6-1.3,1.1-2,1.5
								c-0.8,0.3-1.6,0.5-2.5,0.5"/>
							<path class="st5" d="M19.3,10.3c0,1-0.1,1.9-0.3,2.7c-0.2,0.8-0.5,1.6-0.8,2.2c-0.3,0.6-0.8,1.1-1.2,1.5s-0.9,0.5-1.4,0.5"/>
						</g>
						<g>
							<path class="st5" d="M15.5,10.3c0,1,0,1.9-0.1,2.7c0,0.8,0,1.6,0,2.2c0,0.6,0,1.2,0,1.5c0,0.4,0,0.6,0,0.6h-0.1h-0.1
								c0,0,0,0-0.1,0l0,0c-1,0-2-0.2-2.8-0.6c-0.9-0.4-1.6-0.9-2.3-1.6c-0.6-0.6-1.2-1.4-1.5-2.3C8.1,12,8,11,8,10c0,0,0.2,0,0.6,0
								c0.4,0,0.9,0,1.6,0c0.7,0,1.5,0,2.4,0C13.5,10.2,14.5,10.2,15.5,10.3z"/>
							<path class="st5" d="M15.4,13.8c-0.9,0-1.8,0-2.5,0c-0.8,0-1.5,0-2.1,0s-1.1,0-1.4,0c-0.3,0-0.5,0-0.5,0"/>
							<path class="st5" d="M15.4,16.3c-0.5,0-1.1,0-1.5,0c-0.5,0-0.9,0-1.2,0c-0.4,0-0.6,0-0.8,0s-0.3,0-0.3,0"/>
							<path class="st5" d="M11.7,10.2c0,1,0.1,1.9,0.2,2.7c0.2,0.8,0.4,1.6,0.7,2.2c0.3,0.6,0.7,1.2,1.1,1.5
								c0.4,0.4,0.9,0.6,1.4,0.6"/>
							<path class="st5" d="M9,10.2c0,1,0.1,1.9,0.4,2.7c0.3,0.8,0.7,1.6,1.3,2.3c0.6,0.6,1.2,1.2,2,1.5c0.7,0.4,1.6,0.6,2.4,0.6"/>
						</g>
					</g>
				</g>
				<g>
					<defs>
						<path id="SVGID_23_" d="M23,10.4c0,0.2,0,0.4,0,0.6s0,0.4-0.1,0.6c0,0.2-0.1,0.4-0.1,0.5c0,0.2-0.1,0.4-0.2,0.5
							c-0.3,0.7-0.6,1.3-1.1,1.9c-0.5,0.6-1,1.1-1.6,1.5s-1.3,0.7-2,1c-0.7,0.2-1.5,0.3-2.3,0.3l0,0c0,0,0,0-0.1,0c0,0,0,0-0.1,0
							h-0.1h-0.1h-0.1c0,0,0,0-0.1,0l0,0c-1,0-2-0.2-2.8-0.6c-0.9-0.4-1.6-0.9-2.3-1.6c-0.6-0.6-1.2-1.4-1.5-2.3C8,12,7.9,11,7.9,10
							c0,0,0.2,0,0.6,0c0.4,0,0.9,0,1.6,0c0.7,0,1.5,0,2.4,0s1.9,0,2.9,0.1c1,0,2,0,2.9,0.1c0.9,0,1.7,0,2.4,0s1.2,0,1.6,0
							C22.8,10.4,23,10.4,23,10.4z"/>
					</defs>
					<clipPath id="SVGID_24_">
						<use xlink:href="#SVGID_23_"  style="overflow:visible;"/>
					</clipPath>
					<path class="st14" d="M23,10.4c0,0.2,0,0.4,0,0.6s0,0.4-0.1,0.6c0,0.2-0.1,0.4-0.1,0.5c0,0.2-0.1,0.4-0.2,0.5
						c-0.3,0.7-0.6,1.3-1.1,1.9c-0.5,0.6-1,1.1-1.6,1.5s-1.3,0.7-2,1c-0.7,0.2-1.5,0.3-2.3,0.3l0,0c0,0,0,0-0.1,0c0,0,0,0-0.1,0
						h-0.1h-0.1h-0.1c0,0,0,0-0.1,0l0,0c-1,0-2-0.2-2.8-0.6c-0.9-0.4-1.6-0.9-2.3-1.6c-0.6-0.6-1.2-1.4-1.5-2.3C8,12,7.9,11,7.9,10
						c0,0,0.2,0,0.6,0c0.4,0,0.9,0,1.6,0c0.7,0,1.5,0,2.4,0s1.9,0,2.9,0.1c1,0,2,0,2.9,0.1c0.9,0,1.7,0,2.4,0s1.2,0,1.6,0
						C22.8,10.4,23,10.4,23,10.4z"/>
				</g>
			</g>
			<g class="st1">
				<g>
					<defs>
						<path id="SVGID_25_" d="M15.6,17.3h-0.3l0,0l0,0l0,0l0,0l0,0l0,0l0,0l0,0H15l0,0c0,0,0,0,0.1,0h0.1h0.1h0.1
							C15.5,17.3,15.5,17.3,15.6,17.3C15.5,17.3,15.5,17.3,15.6,17.3L15.6,17.3z"/>
					</defs>
					<clipPath id="SVGID_26_">
						<use xlink:href="#SVGID_25_"  style="overflow:visible;"/>
					</clipPath>
					<path class="st15" d="M15.6,17.3h-0.3l0,0l0,0l0,0l0,0l0,0l0,0l0,0l0,0H15l0,0c0,0,0,0,0.1,0h0.1h0.1h0.1
						C15.5,17.3,15.5,17.3,15.6,17.3C15.5,17.3,15.5,17.3,15.6,17.3L15.6,17.3z"/>
				</g>
			</g>
			<g class="st1">
				<g>
					<defs>
						<polygon id="SVGID_27_" points="15.3,17.3 15.6,3.2 15.6,3.2 15.6,3.2 15.6,3.2 15.6,3.2 15.6,3.2 15.6,3.2 15.6,3.2 
							15.6,3.2 15.3,17.3 15.3,17.3 15.3,17.3 15.3,17.3 15.3,17.3 15.3,17.3 15.3,17.3 						"/>
					</defs>
					<clipPath id="SVGID_28_">
						<use xlink:href="#SVGID_27_"  style="overflow:visible;"/>
					</clipPath>
					<g class="st16">
						<g>
							<polygon class="st5" points="15.3,17.3 15.6,3.2 15.6,3.2 15.6,3.2 15.6,3.2 15.6,3.2 15.3,17.3 15.3,17.3 15.3,17.3 							
								"/>
							<line class="st5" x1="15.3" y1="17.3" x2="15.6" y2="3.2"/>
							<line class="st5" x1="15.3" y1="17.3" x2="15.6" y2="3.2"/>
						</g>
						<g>
							<polygon class="st5" points="15.3,17.3 15.6,3.2 15.6,3.2 15.6,3.2 15.6,3.2 15.6,3.2 15.3,17.3 15.3,17.3 15.3,17.3 							
								"/>
							<line class="st5" x1="15.3" y1="17.3" x2="15.6" y2="3.2"/>
							<line class="st5" x1="15.3" y1="17.3" x2="15.6" y2="3.2"/>
						</g>
					</g>
				</g>
				<g>
					<defs>
						<polygon id="SVGID_29_" points="15.3,17.3 15.6,3.2 15.6,3.2 15.6,3.2 15.6,3.2 15.6,3.2 15.6,3.2 15.6,3.2 15.6,3.2 
							15.6,3.2 15.3,17.3 15.3,17.3 15.3,17.3 15.3,17.3 15.3,17.3 15.3,17.3 15.3,17.3 						"/>
					</defs>
					<clipPath id="SVGID_30_">
						<use xlink:href="#SVGID_29_"  style="overflow:visible;"/>
					</clipPath>
					<polygon class="st17" points="15.3,17.3 15.6,3.2 15.6,3.2 15.6,3.2 15.6,3.2 15.6,3.2 15.6,3.2 15.6,3.2 15.6,3.2 15.6,3.2 
						15.3,17.3 15.3,17.3 15.3,17.3 15.3,17.3 15.3,17.3 15.3,17.3 15.3,17.3 					"/>
				</g>
			</g>
			<g class="st1">
				<g>
					<defs>
						<path id="SVGID_31_" d="M15.8,3.2L15.8,3.2L15.8,3.2c-0.1,0-0.1,0-0.2,0s-0.1,0-0.1,0h-0.1h-0.1c0,0,0,0-0.1,0s0,0,0,0h0.3
							l0,0l0,0l0,0l0,0l0,0l0,0l0,0l0,0H15.8z"/>
					</defs>
					<clipPath id="SVGID_32_">
						<use xlink:href="#SVGID_31_"  style="overflow:visible;"/>
					</clipPath>
					<path class="st18" d="M15.8,3.2L15.8,3.2L15.8,3.2c-0.1,0-0.1,0-0.2,0s-0.1,0-0.1,0h-0.1h-0.1c0,0,0,0-0.1,0s0,0,0,0h0.3l0,0
						l0,0l0,0l0,0l0,0l0,0l0,0l0,0H15.8z"/>
				</g>
			</g>
			<g class="st1">
				<g>
					<defs>
						<path id="SVGID_33_" d="M15.8,16.8L15.8,16.8C15.7,16.8,15.7,16.8,15.8,16.8c-0.1,0-0.2,0-0.3,0c-0.1,0-0.1,0-0.2,0
							c-0.1,0-0.1,0-0.2,0s-0.1,0-0.2,0s-0.1,0-0.1,0l0,0L15,3.7l0,0h0.1c0,0,0.1,0,0.2,0c0.1,0,0.1,0,0.2,0c0.1,0,0.1,0,0.2,0
							c0.1,0,0.1,0,0.2,0H16l0,0C16,7.7,15.9,12.9,15.8,16.8z"/>
					</defs>
					<clipPath id="SVGID_34_">
						<use xlink:href="#SVGID_33_"  style="overflow:visible;"/>
					</clipPath>
					<g class="st19">
						<g>
							<path class="st5" d="M15.8,16.8L16,3.7l0,0h-0.1c0,0-0.1,0-0.2,0c-0.1,0-0.1,0-0.2,0l-0.2,13.1c0.1,0,0.1,0,0.2,0
								C15.6,16.8,15.6,16.8,15.8,16.8C15.7,16.8,15.8,16.8,15.8,16.8L15.8,16.8z"/>
							<line class="st5" x1="15.8" y1="16.8" x2="16" y2="3.7"/>
							<line class="st5" x1="15.6" y1="16.8" x2="15.8" y2="3.7"/>
						</g>
						<g>
							<path class="st5" d="M15.3,16.8l0.3-13.1c-0.1,0-0.1,0-0.2,0c-0.1,0-0.1,0-0.2,0h-0.1l0,0l-0.3,13.1l0,0h0.1c0,0,0.1,0,0.2,0
								S15.3,16.8,15.3,16.8z"/>
							<line class="st5" x1="15.1" y1="16.8" x2="15.3" y2="3.7"/>
							<line class="st5" x1="14.9" y1="16.8" x2="15.1" y2="3.7"/>
						</g>
					</g>
				</g>
				<g>
					<defs>
						<path id="SVGID_35_" d="M15.8,16.8L15.8,16.8C15.7,16.8,15.7,16.8,15.8,16.8c-0.1,0-0.2,0-0.3,0c-0.1,0-0.1,0-0.2,0
							c-0.1,0-0.1,0-0.2,0s-0.1,0-0.2,0s-0.1,0-0.1,0l0,0L15,3.7l0,0h0.1c0,0,0.1,0,0.2,0c0.1,0,0.1,0,0.2,0c0.1,0,0.1,0,0.2,0
							c0.1,0,0.1,0,0.2,0H16l0,0C16,7.7,15.9,12.9,15.8,16.8z"/>
					</defs>
					<clipPath id="SVGID_36_">
						<use xlink:href="#SVGID_35_"  style="overflow:visible;"/>
					</clipPath>
					<path class="st20" d="M15.8,16.8L15.8,16.8C15.7,16.8,15.7,16.8,15.8,16.8c-0.1,0-0.2,0-0.3,0c-0.1,0-0.1,0-0.2,0
						c-0.1,0-0.1,0-0.2,0s-0.1,0-0.2,0s-0.1,0-0.1,0l0,0L15,3.7l0,0h0.1c0,0,0.1,0,0.2,0c0.1,0,0.1,0,0.2,0c0.1,0,0.1,0,0.2,0
						c0.1,0,0.1,0,0.2,0H16l0,0C16,7.7,15.9,12.9,15.8,16.8z"/>
				</g>
			</g>
			<g class="st1">
				<g>
					<defs>
						<path id="SVGID_37_" d="M16.1,3.7c0.6,0,1.2,0.1,1.8,0.3c0.6,0.2,1.1,0.4,1.6,0.7C20,5,20.4,5.4,20.8,5.8
							c0.4,0.4,0.7,0.9,1,1.4c0.1,0.2,0.2,0.5,0.3,0.7s0.2,0.5,0.2,0.8c0,0.3,0.1,0.5,0.1,0.8c0,0.3,0,0.6,0,0.8
							c0,0.3,0,0.5-0.1,0.8c0,0.3-0.1,0.5-0.2,0.8c-0.1,0.3-0.2,0.5-0.3,0.7c-0.1,0.2-0.2,0.5-0.3,0.7c-0.3,0.5-0.6,1-1,1.4
							s-0.9,0.8-1.4,1.1s-1,0.5-1.6,0.7s-1.2,0.3-1.8,0.3l0,0h-0.1c0,0-0.1,0-0.2,0c-0.1,0-0.1,0-0.2,0c-0.1,0-0.1,0-0.2,0
							s-0.1,0-0.2,0s-0.1,0-0.1,0l0,0c-0.9,0-1.8-0.3-2.5-0.6c-0.8-0.4-1.5-0.9-2-1.5c-0.6-0.6-1-1.3-1.4-2.1
							c-0.3-0.8-0.5-1.6-0.5-2.5s0.2-1.7,0.6-2.5c0.3-0.8,0.8-1.5,1.4-2c0.6-0.6,1.3-1.1,2.1-1.4s1.7-0.5,2.6-0.5l0,0h0.1
							c0,0,0.1,0,0.2,0c0.1,0,0.1,0,0.2,0c0.1,0,0.1,0,0.2,0c0.1,0,0.1,0,0.2,0C16,3.7,16,3.7,16.1,3.7C16,3.7,16.1,3.7,16.1,3.7z"
							/>
					</defs>
					<clipPath id="SVGID_38_">
						<use xlink:href="#SVGID_37_"  style="overflow:visible;"/>
					</clipPath>
					<g class="st21">
						<g>
							<path class="st5" d="M16.1,3.7c0.9,0,1.8,0.3,2.5,0.6c0.8,0.4,1.5,0.9,2,1.5c0.6,0.6,1,1.3,1.4,2.1c0.3,0.8,0.5,1.6,0.5,2.5
								c0,0-0.2,0-0.5,0c-0.4,0-0.9,0-1.5,0s-1.4,0-2.2,0s-1.8,0-2.7,0c0-0.9,0-1.7,0-2.5s0-1.5,0-2c0-0.6,0-1.1,0-1.4s0-0.6,0-0.6
								c0.1,0,0.1,0,0.2,0c0.1,0,0.1,0,0.2,0C16,3.7,16,3.7,16.1,3.7C16,3.7,16.1,3.7,16.1,3.7z"/>
							<path class="st5" d="M19.3,4.8c0,0-0.1,0-0.3,0s-0.5,0-0.8,0s-0.7,0-1.2,0s-0.9,0-1.5,0"/>
							<path class="st5" d="M21.6,7.1c0,0-0.2,0-0.5,0s-0.8,0-1.3,0c-0.6,0-1.2,0-1.9,0s-1.5,0-2.4,0"/>
							<path class="st5" d="M16,3.7c0.8,0,1.5,0.3,2.2,0.6c0.7,0.4,1.3,0.9,1.8,1.4c0.5,0.6,0.9,1.3,1.2,2.1s0.4,1.6,0.4,2.5"/>
							<path class="st5" d="M15.8,3.7c0.5,0,0.9,0.3,1.3,0.6c0.4,0.4,0.7,0.8,1,1.4c0.3,0.7,0.5,1.4,0.7,2.1C19,8.6,19,9.4,19,10.3"
								/>
						</g>
						<g>
							<path class="st5" d="M15.6,3.7c0,0,0,0.2,0,0.6c0,0.3,0,0.8,0,1.4s0,1.3,0,2c0,0.8,0,1.6,0,2.5c-1,0-1.9,0-2.7,0
								s-1.6,0-2.2,0c-0.6,0-1.2,0-1.5,0c-0.4,0-0.6,0-0.6,0c0-0.9,0.2-1.7,0.6-2.5c0.3-0.8,0.8-1.5,1.4-2c0.6-0.6,1.3-1.1,2.1-1.4
								s1.7-0.5,2.6-0.5l0,0h0.1C15.4,3.8,15.5,3.8,15.6,3.7C15.4,3.7,15.5,3.7,15.6,3.7z"/>
							<path class="st5" d="M15.6,4.7c-0.5,0-1,0-1.5,0s-0.9,0-1.2,0s-0.6,0-0.8,0s-0.3,0-0.3,0"/>
							<path class="st5" d="M15.5,7c-0.8,0-1.6,0-2.4,0c-0.7,0-1.4,0-2,0s-1,0-1.3,0S9.3,7,9.3,7"/>
							<path class="st5" d="M15.3,3.7c-0.5,0-0.9,0.2-1.3,0.6c-0.4,0.3-0.8,0.8-1.1,1.4s-0.5,1.3-0.7,2c-0.2,0.8-0.3,1.6-0.3,2.5"/>
							<path class="st5" d="M15.1,3.7c-0.8,0-1.5,0.2-2.2,0.5S11.6,5,11.1,5.6s-0.9,1.3-1.2,2c-0.3,0.8-0.5,1.6-0.5,2.5"/>
						</g>
						<g>
							<path class="st5" d="M22.5,10.4c0,0.9-0.2,1.7-0.6,2.5c-0.3,0.8-0.8,1.5-1.4,2c-0.6,0.6-1.3,1.1-2.1,1.4s-1.7,0.5-2.6,0.5
								l0,0h-0.1c0,0-0.1,0-0.2,0c-0.1,0-0.1,0-0.2,0c0,0,0-0.2,0-0.6c0-0.3,0-0.8,0-1.4s0-1.3,0-2c0-0.8,0-1.6,0-2.5
								c1,0,1.9,0,2.7,0s1.6,0,2.2,0c0.6,0,1.1,0,1.5,0C22.3,10.4,22.5,10.4,22.5,10.4z"/>
							<path class="st5" d="M21.5,13.6c0,0-0.2,0-0.5,0s-0.8,0-1.3,0c-0.6,0-1.2,0-1.9,0s-1.5,0-2.4,0"/>
							<path class="st5" d="M19.1,15.9c0,0-0.1,0-0.3,0s-0.5,0-0.8,0s-0.7,0-1.2,0s-0.9,0-1.5,0"/>
							<path class="st5" d="M21.5,10.4c0,0.9-0.2,1.7-0.5,2.5c-0.3,0.8-0.7,1.4-1.2,2S18.7,16,18,16.3s-1.4,0.5-2.2,0.5"/>
							<path class="st5" d="M19,10.3c0,0.9-0.1,1.7-0.3,2.5c-0.2,0.8-0.4,1.5-0.7,2c-0.3,0.6-0.7,1.1-1.1,1.4
								c-0.4,0.4-0.9,0.6-1.3,0.6"/>
						</g>
						<g>
							<path class="st5" d="M15.5,10.3c0,0.9,0,1.7,0,2.5c0,0.8,0,1.5,0,2c0,0.6,0,1.1,0,1.4s0,0.6,0,0.6c-0.1,0-0.1,0-0.2,0
								s-0.1,0-0.2,0s-0.1,0-0.1,0l0,0c-0.9,0-1.8-0.3-2.5-0.6c-0.8-0.4-1.5-0.9-2-1.5c-0.6-0.6-1-1.3-1.4-2.1
								c-0.3-0.8-0.5-1.6-0.5-2.5c0,0,0.2,0,0.6,0c0.4,0,0.9,0,1.5,0s1.4,0,2.2,0C13.6,10.2,14.5,10.2,15.5,10.3z"/>
							<path class="st5" d="M15.4,13.5c-0.8,0-1.6,0-2.4,0c-0.7,0-1.4,0-2,0s-1,0-1.3,0s-0.5,0-0.5,0"/>
							<path class="st5" d="M15.4,15.8c-0.5,0-1,0-1.5,0s-0.9,0-1.2,0s-0.6,0-0.8,0s-0.3,0-0.3,0"/>
							<path class="st5" d="M12,10.2c0,0.9,0.1,1.7,0.2,2.5c0.1,0.8,0.4,1.5,0.7,2.1s0.6,1.1,1,1.4c0.4,0.4,0.8,0.6,1.3,0.6"/>
							<path class="st5" d="M9.4,10.2c0,0.9,0.1,1.7,0.4,2.5c0.3,0.8,0.7,1.5,1.2,2.1s1.1,1.1,1.8,1.4c0.7,0.4,1.4,0.6,2.2,0.6"/>
						</g>
					</g>
				</g>
				<g>
					<defs>
						<path id="SVGID_39_" d="M16.1,3.7c0.6,0,1.2,0.1,1.8,0.3c0.6,0.2,1.1,0.4,1.6,0.7C20,5,20.4,5.4,20.8,5.8
							c0.4,0.4,0.7,0.9,1,1.4c0.1,0.2,0.2,0.5,0.3,0.7s0.2,0.5,0.2,0.8c0,0.3,0.1,0.5,0.1,0.8c0,0.3,0,0.6,0,0.8
							c0,0.3,0,0.5-0.1,0.8c0,0.3-0.1,0.5-0.2,0.8c-0.1,0.3-0.2,0.5-0.3,0.7c-0.1,0.2-0.2,0.5-0.3,0.7c-0.3,0.5-0.6,1-1,1.4
							s-0.9,0.8-1.4,1.1s-1,0.5-1.6,0.7s-1.2,0.3-1.8,0.3l0,0h-0.1c0,0-0.1,0-0.2,0c-0.1,0-0.1,0-0.2,0c-0.1,0-0.1,0-0.2,0
							s-0.1,0-0.2,0s-0.1,0-0.1,0l0,0c-0.9,0-1.8-0.3-2.5-0.6c-0.8-0.4-1.5-0.9-2-1.5c-0.6-0.6-1-1.3-1.4-2.1
							c-0.3-0.8-0.5-1.6-0.5-2.5s0.2-1.7,0.6-2.5c0.3-0.8,0.8-1.5,1.4-2c0.6-0.6,1.3-1.1,2.1-1.4s1.7-0.5,2.6-0.5l0,0h0.1
							c0,0,0.1,0,0.2,0c0.1,0,0.1,0,0.2,0c0.1,0,0.1,0,0.2,0c0.1,0,0.1,0,0.2,0C16,3.7,16,3.7,16.1,3.7C16,3.7,16.1,3.7,16.1,3.7z"
							/>
					</defs>
					<clipPath id="SVGID_40_">
						<use xlink:href="#SVGID_39_"  style="overflow:visible;"/>
					</clipPath>
					<path class="st22" d="M16.1,3.7c0.6,0,1.2,0.1,1.8,0.3c0.6,0.2,1.1,0.4,1.6,0.7C20,5,20.4,5.4,20.8,5.8c0.4,0.4,0.7,0.9,1,1.4
						c0.1,0.2,0.2,0.5,0.3,0.7s0.2,0.5,0.2,0.8c0,0.3,0.1,0.5,0.1,0.8c0,0.3,0,0.6,0,0.8c0,0.3,0,0.5-0.1,0.8c0,0.3-0.1,0.5-0.2,0.8
						c-0.1,0.3-0.2,0.5-0.3,0.7c-0.1,0.2-0.2,0.5-0.3,0.7c-0.3,0.5-0.6,1-1,1.4s-0.9,0.8-1.4,1.1s-1,0.5-1.6,0.7s-1.2,0.3-1.8,0.3
						l0,0h-0.1c0,0-0.1,0-0.2,0c-0.1,0-0.1,0-0.2,0c-0.1,0-0.1,0-0.2,0s-0.1,0-0.2,0s-0.1,0-0.1,0l0,0c-0.9,0-1.8-0.3-2.5-0.6
						c-0.8-0.4-1.5-0.9-2-1.5c-0.6-0.6-1-1.3-1.4-2.1c-0.3-0.8-0.5-1.6-0.5-2.5s0.2-1.7,0.6-2.5c0.3-0.8,0.8-1.5,1.4-2
						c0.6-0.6,1.3-1.1,2.1-1.4s1.7-0.5,2.6-0.5l0,0h0.1c0,0,0.1,0,0.2,0c0.1,0,0.1,0,0.2,0c0.1,0,0.1,0,0.2,0c0.1,0,0.1,0,0.2,0
						C16,3.7,16,3.7,16.1,3.7C16,3.7,16.1,3.7,16.1,3.7z"/>
				</g>
			</g>
		</g>
	</g>
</g>
</svg>
